<?xml version="1.0" standalone="no"?>
<!DOCTYPE svg PUBLIC "-//W3C//DTD SVG 20010904//EN"
 "http://www.w3.org/TR/2001/REC-SVG-20010904/DTD/svg10.dtd">
<svg version="1.0" xmlns="http://www.w3.org/2000/svg"
 width="980.000000pt" height="980.000000pt" viewBox="0 0 980.000000 980.000000"
 preserveAspectRatio="xMidYMid meet">

<g transform="translate(0.000000,980.000000) scale(0.100000,-0.100000)"
fill="#000000" stroke="none">
<path d="M2430 9791 c-637 -7 -669 -8 -770 -30 -625 -133 -1158 -546 -1440
-1116 -118 -238 -185 -475 -201 -710 -14 -212 -23 -4444 -10 -5370 10 -790 10
-790 36 -913 80 -383 265 -736 530 -1011 286 -296 592 -474 1024 -596 l159
-45 3150 0 3149 0 134 39 c195 57 289 93 455 175 177 86 290 155 387 235 96
78 288 278 358 371 154 206 279 468 365 766 l44 155 0 3155 0 3155 -40 142
c-95 333 -202 556 -378 789 -334 445 -894 760 -1417 799 -160 12 -4599 19
-5535 10z m2685 -1766 c424 -24 924 -171 1309 -386 261 -146 476 -308 686
-519 488 -487 792 -1093 903 -1800 29 -183 31 -617 3 -815 -82 -600 -326
-1160 -700 -1610 -93 -111 -283 -302 -396 -397 -695 -585 -1619 -841 -2510
-697 -689 111 -1357 473 -1823 987 -388 427 -650 952 -762 1522 -78 400 -72
853 15 1254 103 472 316 915 629 1306 103 129 332 357 466 464 439 350 927
568 1476 661 163 27 400 44 529 39 41 -2 120 -6 175 -9z"/>
<path d="M4830 7624 c-249 -67 -490 -461 -675 -1104 -62 -214 -98 -376 -93
-417 l3 -28 843 -3 c670 -2 842 0 842 10 0 30 -53 263 -91 403 -57 210 -122
406 -175 527 -200 458 -429 673 -654 612z"/>
<path d="M5719 7443 c178 -357 302 -717 396 -1156 25 -114 45 -210 45 -213 0
-6 1162 -4 1188 2 12 4 22 11 22 18 0 42 -241 415 -359 557 -235 281 -588 563
-886 709 -118 57 -373 161 -428 174 l-27 6 49 -97z"/>
<path d="M3985 7486 c-565 -199 -1084 -623 -1415 -1156 -88 -143 -137 -237
-126 -247 4 -4 277 -9 606 -11 l598 -2 17 77 c54 250 78 355 101 437 83 301
168 531 285 775 44 90 79 166 79 168 0 8 -33 -1 -145 -41z"/>
<path d="M2236 5558 c-97 -450 -97 -877 1 -1325 l27 -123 669 0 670 0 -7 68
c-24 253 -24 1206 0 1440 l7 62 -670 0 -670 0 -27 -122z"/>
<path d="M4083 5673 c-67 -3 -83 -7 -87 -21 -10 -32 -35 -387 -41 -592 -7
-211 5 -561 26 -802 l12 -138 912 0 912 0 14 128 c18 175 18 1118 0 1293 l-13
126 -322 6 c-313 7 -1250 6 -1413 0z"/>
<path d="M6214 5608 c24 -256 24 -1178 0 -1430 l-7 -68 670 0 670 0 31 153
c92 442 90 858 -5 1295 l-26 122 -670 0 -670 0 7 -72z"/>
<path d="M4060 3721 c0 -65 105 -485 175 -696 141 -430 336 -735 532 -831 49
-25 70 -29 138 -29 68 0 89 4 138 29 195 95 392 402 532 831 70 211 175 631
175 696 0 5 -358 9 -845 9 -487 0 -845 -4 -845 -9z"/>
<path d="M6297 3723 c-121 -3 -128 -5 -137 -26 -5 -12 -25 -98 -45 -192 -92
-430 -213 -789 -361 -1072 -41 -79 -74 -147 -74 -152 0 -22 241 67 435 160
184 88 384 219 551 360 128 108 342 334 435 459 147 198 281 432 259 454 -11
11 -765 18 -1063 9z"/>
<path d="M2440 3705 c0 -20 70 -143 168 -299 240 -380 614 -722 1022 -934 174
-91 500 -216 500 -192 0 5 -36 78 -79 162 -149 286 -259 614 -356 1062 -25
116 -45 211 -45 213 0 2 -272 3 -605 3 -537 0 -605 -2 -605 -15z"/>
</g>
</svg>
